<svg width="93" height="35" viewBox="0 0 93 35" fill="none" xmlns="http://www.w3.org/2000/svg">
<g id="Group 99">
<g id="Group 97">
<path id="Vector" d="M84.1893 22.8713C88.3395 20.5923 91.4861 18.8559 91.7573 18.7211C92.6245 18.2595 93.5206 17.0385 91.7573 16.0901C91.1879 15.7919 88.1224 14.1093 84.1893 11.9399L78.7373 17.446L84.189 22.8713H84.1893Z" fill="#FFD900"/>
<path id="Vector_2" d="M78.7375 17.4458L61.377 34.9427C61.7842 34.9967 62.2442 34.8886 62.7869 34.5904C63.9256 33.9673 75.9969 27.3747 84.1898 22.8723L78.7375 17.4458Z" fill="#F43249"/>
<path id="Vector_3" d="M78.7378 17.4459L84.1896 11.9666C84.1896 11.9666 64.0083 0.952952 62.787 0.303083C62.3275 0.0298294 61.8119 -0.0509587 61.3506 0.0298294L78.7378 17.4456V17.4459Z" fill="#00EE76"/>
<path id="Vector_4" d="M78.738 17.4456L61.3505 0.0297852C60.6447 0.192846 60.0483 0.816281 60.0483 2.09077V32.8805C60.0483 34.0478 60.5099 34.8884 61.3772 34.9691L78.7377 17.4453L78.738 17.4456Z" fill="#00D3FF"/>
</g>
<path id="Vector_5" d="M7.65835 0H27.3113C31.541 0 34.9696 3.42866 34.9696 7.65835V27.3113C34.9696 31.541 31.541 34.9696 27.3113 34.9696H7.65835C3.42866 34.9696 0 31.541 0 27.3113V7.65835C0 3.42866 3.42866 0 7.65835 0Z" fill="url(#paint0_linear_103_80)"/>
<path id="Vector_6" d="M11.2073 25.0034L11.2106 25.0045L10.0149 27.0754C9.57848 27.8313 8.61189 28.0903 7.85595 27.6539C7.10014 27.2175 6.84101 26.2509 7.27745 25.4949L8.15825 23.9694L8.2428 23.8229C8.39374 23.606 8.76625 23.2315 9.51141 23.302C9.51141 23.302 11.2649 23.4922 11.3918 24.4036C11.3918 24.4036 11.4091 24.7035 11.2073 25.0034ZM28.1653 19.7143H24.4369C24.1829 19.6972 24.0722 19.6065 24.0285 19.5538L24.0257 19.549L20.0347 12.6362L20.0295 12.6396L19.7902 12.2965C19.3978 11.6965 18.7749 13.2308 18.7749 13.2308C18.0312 14.9405 18.8805 16.8842 19.1766 17.4717L24.7201 27.0733C25.1564 27.8292 26.1229 28.0883 26.879 27.6517C27.6348 27.2153 27.894 26.2487 27.4574 25.4927L26.0713 23.0919C26.0444 23.0337 25.9977 22.8758 26.2819 22.8751H28.1653C29.0381 22.8751 29.7457 22.1675 29.7457 21.2946C29.7457 20.4217 29.0381 19.7142 28.1653 19.7142V19.7143ZM20.9235 21.8627C20.9235 21.8627 21.1226 22.8751 20.3525 22.8751H6.56972C5.69685 22.8751 4.98926 22.1675 4.98926 21.2946C4.98926 20.4217 5.69685 19.7142 6.56972 19.7142H10.1131C10.6852 19.6811 10.8207 19.3508 10.8207 19.3508L10.824 19.3524L15.4493 11.3411L15.4479 11.3408C15.5322 11.1861 15.462 11.0398 15.4498 11.0167L13.9222 8.37087C13.4858 7.61507 13.7448 6.64835 14.5007 6.21204C15.2567 5.77561 16.2233 6.03446 16.6597 6.79041L17.3681 8.01749L18.0753 6.79259C18.5117 6.03679 19.4783 5.77766 20.2342 6.21423C20.9902 6.65067 21.2492 7.61711 20.8127 8.37306L14.3764 19.521C14.3483 19.5889 14.3397 19.6954 14.5491 19.7142H18.3963L18.3971 19.7517C18.3971 19.7517 20.6207 19.7863 20.9235 21.8627Z" fill="white"/>
</g>
<defs>
<linearGradient id="paint0_linear_103_80" x1="17.4848" y1="0" x2="17.4848" y2="34.9696" gradientUnits="userSpaceOnUse">
<stop stop-color="#17C9FB"/>
<stop offset="1" stop-color="#1A74E8"/>
</linearGradient>
</defs>
</svg>
