<svg width="31" height="31" viewBox="0 0 31 31" fill="none" xmlns="http://www.w3.org/2000/svg">
<path d="M6.9195 5.53564H24.0802C24.9993 5.53558 25.8836 5.88722 26.5516 6.51842C27.2197 7.14963 27.6209 8.01254 27.6729 8.93014L27.6784 9.13386V21.866C27.6785 22.7851 27.3269 23.6693 26.6957 24.3374C26.0645 25.0055 25.2015 25.4066 24.2839 25.4587L24.0802 25.4642H6.9195C6.00042 25.4643 5.11616 25.1126 4.44811 24.4814C3.78005 23.8502 3.37886 22.9873 3.32682 22.0697L3.32129 21.866V9.13386C3.32123 8.21478 3.67287 7.33051 4.30407 6.66246C4.93527 5.99441 5.79818 5.59321 6.71579 5.54118L6.9195 5.53564H24.0802H6.9195ZM26.0177 12.0733L15.8829 17.3433C15.7848 17.3943 15.6774 17.4252 15.5671 17.4342C15.4568 17.4431 15.3459 17.4299 15.2408 17.3954L15.1168 17.3433L4.982 12.0733V21.866C4.98202 22.3522 5.16487 22.8207 5.49426 23.1784C5.82364 23.5361 6.27548 23.7568 6.76007 23.7969L6.9195 23.8035H24.0802C24.5666 23.8035 25.0353 23.6205 25.393 23.2908C25.7507 22.9612 25.9713 22.5091 26.0111 22.0243L26.0177 21.866V12.0733ZM24.0802 7.19636H6.9195C6.43326 7.19638 5.96479 7.37923 5.60711 7.70861C5.24942 8.038 5.02866 8.48983 4.98865 8.97443L4.982 9.13386V10.2011L15.4999 15.6704L26.0177 10.2011V9.13386C26.0177 8.64744 25.8347 8.17883 25.5051 7.82111C25.1754 7.4634 24.7233 7.24275 24.2385 7.203L24.0802 7.19636Z" fill="#FF1313"/>
</svg>
