<svg width="27" height="27" viewBox="0 0 27 27" fill="none" xmlns="http://www.w3.org/2000/svg">
<path d="M13.5005 15.75C15.9822 15.75 18.0005 13.7318 18.0005 11.25C18.0005 8.76825 15.9822 6.75 13.5005 6.75C11.0187 6.75 9.00049 8.76825 9.00049 11.25C9.00049 13.7318 11.0187 15.75 13.5005 15.75ZM13.5005 9C14.7414 9 15.7505 10.0091 15.7505 11.25C15.7505 12.4909 14.7414 13.5 13.5005 13.5C12.2596 13.5 11.2505 12.4909 11.2505 11.25C11.2505 10.0091 12.2596 9 13.5005 9Z" fill="#FF1313"/>
<path d="M12.8471 24.5407C13.0375 24.6767 13.2656 24.7498 13.4996 24.7498C13.7336 24.7498 13.9617 24.6767 14.1521 24.5407C14.4941 24.2989 22.5322 18.495 22.4996 11.25C22.4996 6.28763 18.462 2.25 13.4996 2.25C8.53724 2.25 4.49961 6.28762 4.49961 11.2444C4.46699 18.495 12.5051 24.2989 12.8471 24.5407ZM13.4996 4.5C17.2222 4.5 20.2496 7.52738 20.2496 11.2556C20.2732 16.2484 15.3131 20.7315 13.4996 22.2019C11.6872 20.7304 6.72599 16.2461 6.74961 11.25C6.74961 7.52738 9.77699 4.5 13.4996 4.5Z" fill="#FF1313"/>
</svg>
